<svg  width="109" height="109" xmlns="http://www.w3.org/2000/svg">
<g fill="rgba(249, 249, 250, 0.8)">
<path id="svg_2" d="m54.449997,0.851463c0,0 -31.599998,-1 -38.099998,34l0,23.900005c0,0 0.299999,2.599991 7.5,7.699993s25.799999,19.899994 30.599998,19.899994s23.500008,-14.599991 30.700005,-19.800003c7.199997,-5.199993 7.5,-7.699993 7.5,-7.699993l0,-23.899998c-6.599998,-35.099999 -38.200005,-34.099999 -38.200005,-34.099999zm21.700005,47.099999l-21.700005,0l-21.599998,0l0,-13c4.400002,-17.399998 21.599998,-17.599998 21.599998,-17.599998s17.300003,0.200001 21.700005,17.599998l0,13z" class="st90"/>
<path d="m54.449997,91.751465c0,0 -4.899998,-0.5 -8.700001,-3.100006c-3.799999,-2.699997 -29.399998,-20.899994 -29.399998,-20.899994l0,36.199997c0,0 0.200001,4.199997 4.799999,4.199997s33.299999,0 33.299999,0s28.600006,0 33.300003,0c4.599998,0 4.800003,-4.199997 4.800003,-4.199997l0,-36.300003c0,0 -25.600006,18.300003 -29.400009,20.899994c-3.799995,2.700012 -8.699997,3.200012 -8.699997,3.200012z" class="st90"/>
</g>
</svg>